<!DOCTYPE svg PUBLIC "-//W3C//DTD SVG 1.1//EN" "http://www.w3.org/Graphics/SVG/1.1/DTD/svg11.dtd">
<!-- Uploaded to: SVG Repo, www.svgrepo.com, Transformed by: SVG Repo Mixer Tools -->
<svg fill="#18b7fe" width="100px" height="100px" viewBox="-51.2 -51.2 614.40 614.40" version="1.1" xml:space="preserve" xmlns="http://www.w3.org/2000/svg" xmlns:xlink="http://www.w3.org/1999/xlink">
<g id="SVGRepo_bgCarrier" stroke-width="0">
<rect x="-51.2" y="-51.2" width="614.40" height="614.40" rx="307.2" fill="#e5fbff" strokewidth="0"/>
</g>
<g id="SVGRepo_tracerCarrier" stroke-linecap="round" stroke-linejoin="round"/>
<g id="SVGRepo_iconCarrier"> <g id="_x31_72_x2C__Anthropometry_x2C__body_x2C__data_x2C__human_x2C__public"> <g> <path d="M280.219,139.664c6.654,2.981,12.645,7.137,17.766,12.226 c6.054,6.052,10.809,13.399,13.792,21.62l2.468,0.361c1.477,0.18,3.011,0.271,4.607,0.271c10.719,0,20.446-4.366,27.462-11.382 c7.047-7.045,11.413-16.771,11.413-27.492c0-10.75-4.366-20.475-11.381-27.521c-7.048-7.016-16.775-11.352-27.494-11.352 c-10.75,0-20.475,4.336-27.521,11.352c-7.016,7.047-11.382,16.771-11.382,27.521c0,1.085,0.06,2.139,0.151,3.223L280.219,139.664z M281.514,148.969l-0.031,0.091l-0.028,0.091l-0.031,0.029l-0.06,0.12l-0.032,0.091l-0.06,0.121l-0.06,0.119v0.03l-0.031,0.061 c-0.962,2.107-2.015,4.126-3.159,6.052c-1.478,2.379-3.074,4.668-4.818,6.836c4.247,3.854,9.153,6.986,14.512,9.273 c5.181,2.199,10.781,3.584,16.713,3.977c-2.618-7.018-6.714-13.311-11.922-18.52C289.252,154.088,285.55,151.258,281.514,148.969z M208.583,173.389c2.348,0.934,4.819,1.687,7.317,2.229c3.583,0.783,7.349,1.205,11.23,1.205c11.143,0,21.439-3.493,29.841-9.455 c2.86-2.018,5.509-4.336,7.92-6.896l0.211-0.24c2.379-2.59,4.517-5.42,6.292-8.432c1.204-1.986,2.257-4.035,3.162-6.143 c-18.849-7.256-40.499-2.891-55.074,11.684C214.907,161.916,211.173,167.367,208.583,173.389z M267.964,168.24 c-2.05,1.957-4.247,3.764-6.566,5.391c-9.693,6.865-21.527,10.9-34.267,10.9c-4.366,0-8.7-0.482-12.887-1.416 c-2.801-0.633-5.542-1.445-8.191-2.439c-1.112,4.186-1.685,8.612-1.685,13.189c0,14.242,5.78,27.16,15.116,36.495 c9.363,9.364,22.253,15.146,36.527,15.146c14.241,0,27.159-5.781,36.495-15.146c9.363-9.335,15.144-22.253,15.144-36.495 c0-3.492-0.361-6.926-1.021-10.209c-7.742-0.149-15.179-1.806-21.952-4.695C278.503,176.34,272.87,172.697,267.964,168.24z M214.363,274.624l-67.358,26.438v75.91h30.112v-47.967c0-2.139,1.716-3.854,3.853-3.854c2.138,0,3.857,1.716,3.857,3.854v47.666 h140.349v-47.666c0-2.139,1.717-3.854,3.854-3.854c2.109,0,3.854,1.716,3.854,3.854v47.967h30.111v-75.91l-46.463-18.248 c-0.75-0.061-1.445-0.332-2.018-0.783l-18.878-7.407v33.183c0,2.018-1.656,3.674-3.706,3.674h-73.86 c-2.049,0-3.706-1.656-3.706-3.674V274.624z M252.213,304.104c-0.39-0.182-0.751-0.422-1.053-0.724l-29.389-28.274v28.998H252.213 z M288.228,274.805l-4.576,4.095c-0.361,0.633-0.965,1.144-1.625,1.476l-25.746,23.005c-0.302,0.302-0.663,0.542-1.025,0.724 h32.972V274.805z M342.821,199.496l-22.134,19.783h22.134V199.496z M284.191,268.541l3.254-2.89 c0.965-0.874,2.26-1.114,3.432-0.813c0.334-0.09,0.695-0.15,1.053-0.15c1.358,0,2.53,0.723,3.162,1.806l22.044,8.643h54.081 v-35.802c0-2.139,1.717-3.855,3.854-3.855s3.854,1.717,3.854,3.855v36.072h21.439v-57l-50.164-19.724v24.3 c0,2.048-1.657,3.705-3.707,3.705h-41.04c-2.197,3.281-4.699,6.353-7.468,9.123c-4.096,4.095-8.764,7.588-13.881,10.328 L284.191,268.541z M233.427,276.1l20.383,19.603l22.734-20.325l-0.119-25.775c-6.355,2.318-13.248,3.613-20.414,3.613 c-8.041,0-15.691-1.597-22.675-4.486L233.427,276.1z M161.159,197.811l-50.137,19.691v57.031h21.439V238.43 c0-2.107,1.716-3.854,3.854-3.854c2.109,0,3.854,1.747,3.854,3.854v35.833h54.324l0.512,0.03l19.902-7.83 c0.632-1.053,1.808-1.775,3.162-1.775c0.33,0,0.691,0.061,1.025,0.15c1.354-0.392,2.769,0.029,3.703,1.023l2.919,2.83 l-0.091-23.848c-4.243-2.529-8.128-5.57-11.592-9.033c-3.039-3.012-5.72-6.384-8.068-9.998h-41.103 c-2.046,0-3.703-1.655-3.703-3.703V197.811z M190.699,218.406l-22.134-19.784v19.784H190.699z M423.189,323.615 c2.947,0.693,5.598,2.229,7.675,4.306c2.892,2.892,4.699,6.927,4.699,11.382c0,4.427-1.808,8.462-4.699,11.354 c-2.92,2.92-6.952,4.727-11.381,4.727c-4.457,0-8.462-1.807-11.382-4.727c-2.92-2.892-4.728-6.927-4.728-11.354 c0-4.455,1.808-8.49,4.728-11.382c2.078-2.077,4.728-3.612,7.679-4.306V184.019c-2.951-0.692-5.601-2.198-7.679-4.275 c-2.92-2.921-4.728-6.927-4.728-11.382c0-4.427,1.808-8.462,4.728-11.383c2.92-2.891,6.925-4.697,11.382-4.697 c4.429,0,8.461,1.807,11.381,4.697c2.892,2.921,4.699,6.956,4.699,11.383c0,4.426-1.808,8.461-4.699,11.382 c-2.077,2.077-4.728,3.583-7.675,4.275V323.615z M469.922,345.627c4.425,0,8.461,1.807,11.381,4.727 c2.892,2.891,4.696,6.926,4.696,11.383c0,4.426-1.805,8.461-4.696,11.382c-2.92,2.892-6.956,4.697-11.381,4.697 c-4.457,0-8.462-1.806-11.385-4.697c-2.92-2.921-4.728-6.956-4.728-11.382c0-2.77,0.723-5.391,1.931-7.648l-13.34-11.894 l-0.063-0.061l-0.088-0.061l-0.031-0.03l-0.211-0.181v-0.03l-0.06-0.061l0,0l-0.06-0.059l0,0l-0.06-0.061l0,0l-0.063-0.091l0,0 l-0.06-0.061l0,0l-0.088-0.149l0,0l-0.063-0.061v-0.03l-0.028-0.061l0,0l-0.06-0.06v-0.031l-0.032-0.059l0,0l-0.06-0.091l0,0 l-0.031-0.061v-0.03l-0.179-0.393l0,0c-0.06-0.21-0.119-0.42-0.151-0.631l0,0c-0.031-0.182-0.031-0.361-0.031-0.543V168.361 c0-0.182,0-0.362,0.031-0.572l0,0c0.032-0.211,0.092-0.392,0.151-0.604l0,0l0.179-0.421l0,0l0.031-0.061v-0.03l0.06-0.061l0,0 l0.032-0.09l0,0l0.06-0.06v-0.03l0.028-0.061l0,0l0.063-0.061l0,0l0.088-0.149l0,0l0.06-0.091l0,0l0.063-0.061l0,0l0.06-0.061l0,0 l0.06-0.06v-0.03l0.06-0.061l0,0l0.211-0.211l0.031-0.029l0.088-0.061l0.063-0.03l13.367-11.894 c-1.235-2.288-1.958-4.879-1.958-7.648c0-4.426,1.808-8.461,4.728-11.382c2.923-2.921,6.928-4.698,11.385-4.698 c4.425,0,8.461,1.777,11.381,4.698c2.892,2.921,4.696,6.956,4.696,11.382c0,4.457-1.805,8.461-4.696,11.382 c-2.92,2.891-6.956,4.697-11.381,4.697c-3.464,0-6.654-1.083-9.244-2.921l-12.287,10.93v167.631l12.287,10.9 C463.268,346.711,466.458,345.627,469.922,345.627z M81.153,327.921c2.078-2.077,4.696-3.612,7.679-4.306V184.019 c-2.983-0.692-5.601-2.198-7.679-4.275c-2.923-2.921-4.728-6.956-4.728-11.382c0-4.427,1.804-8.462,4.728-11.383 c2.888-2.891,6.924-4.697,11.381-4.697c4.425,0,8.461,1.807,11.353,4.697c2.92,2.921,4.728,6.956,4.728,11.383 c0,4.455-1.808,8.461-4.728,11.382c-2.078,2.077-4.699,3.583-7.679,4.275v139.597c2.979,0.693,5.601,2.229,7.679,4.306 c2.92,2.892,4.728,6.927,4.728,11.382c0,4.427-1.808,8.462-4.728,11.354c-2.892,2.92-6.928,4.727-11.353,4.727 c-4.457,0-8.493-1.807-11.381-4.727c-2.923-2.892-4.728-6.927-4.728-11.354C76.426,334.848,78.23,330.813,81.153,327.921z M30.715,350.354c2.892-2.92,6.928-4.727,11.381-4.727c3.436,0,6.625,1.084,9.244,2.92l12.287-10.9V170.016l-12.287-10.93 c-2.618,1.838-5.808,2.921-9.244,2.921c-4.454,0-8.49-1.807-11.381-4.697c-2.92-2.921-4.713-6.925-4.713-11.382 c0-4.426,1.793-8.461,4.713-11.382c2.892-2.921,6.928-4.698,11.381-4.698c4.429,0,8.461,1.777,11.353,4.698 c2.92,2.921,4.727,6.956,4.727,11.382c0,2.77-0.691,5.36-1.926,7.648l13.339,11.894l0.091,0.03l0.06,0.061l0.028,0.029l0.21,0.211 l0,0l0.063,0.061l0.028,0.03l0.031,0.06l0,0l0.06,0.061l0,0l0.06,0.061l0,0l0.06,0.091l0,0l0.091,0.149l0,0l0.06,0.061l0,0 l0.06,0.061v0.03l0.032,0.06l0,0l0.06,0.09l0,0l0.032,0.061v0.03l0.028,0.061l0,0l0.183,0.421l0,0 c0.06,0.212,0.119,0.393,0.151,0.604l0,0c0.028,0.21,0.028,0.391,0.028,0.572v170.941c0,0.182,0,0.361-0.028,0.543l0,0 c-0.032,0.211-0.091,0.421-0.151,0.631l0,0l-0.183,0.393v0.03l-0.028,0.061l0,0l-0.032,0.091l0,0l-0.06,0.059v0.031l-0.032,0.06 l0,0l-0.06,0.061v0.03l-0.06,0.061l0,0l-0.091,0.149l0,0l-0.06,0.061l0,0l-0.06,0.091l0,0l-0.06,0.061l0,0l-0.031,0.059h-0.028 l-0.063,0.061v0.03l-0.21,0.181l-0.028,0.03l-0.06,0.061l-0.091,0.061L56.25,354.088c1.235,2.258,1.926,4.879,1.926,7.648 c0,4.426-1.807,8.461-4.727,11.382c-2.892,2.892-6.924,4.697-11.353,4.697c-4.454,0-8.49-1.806-11.381-4.697 c-2.92-2.921-4.713-6.956-4.713-11.382C26.001,357.279,27.795,353.244,30.715,350.354z M163.718,400.761 c-2.018,0-3.703-1.656-3.703-3.704c0-2.047,1.685-3.703,3.703-3.703h184.614c2.045,0,3.702,1.656,3.702,3.703 c0,2.048-1.657,3.704-3.702,3.704H163.718z M444.446,393.354c2.046,0,3.702,1.656,3.702,3.703c0,2.048-1.656,3.704-3.702,3.704 h-42.275c-2.05,0-3.706-1.656-3.706-3.704c0-2.047,1.656-3.703,3.706-3.703H444.446z M372.238,409.132 c2.049,0,3.706,1.655,3.706,3.703c0,2.019-1.657,3.674-3.706,3.674H151.192c-2.018,0-3.706-1.655-3.706-3.674 c0-2.048,1.688-3.703,3.706-3.703H372.238z M91.51,416.509c-2.046,0-3.703-1.655-3.703-3.674c0-2.048,1.657-3.703,3.703-3.703 h42.307c2.046,0,3.703,1.655,3.703,3.703c0,2.019-1.657,3.674-3.703,3.674H91.51z M192.534,95.491 c-10.75,0-20.475,4.366-27.493,11.382c-7.044,7.047-11.381,16.772-11.381,27.492c0,10.75,4.337,20.475,11.381,27.521 c7.047,7.016,16.744,11.382,27.493,11.382c1.565,0,3.103-0.091,4.576-0.271l2.499-0.392c2.772-7.528,6.987-14.333,12.346-20.084 c5.391-5.782,11.894-10.479,19.211-13.731l0.119-1.204c0.091-1.054,0.123-2.138,0.123-3.222 C231.409,112.896,214.005,95.491,192.534,95.491z" style="fill-rule:evenodd;clip-rule:evenodd;"/> </g> </g> <g id="Layer_1"/> </g>
</svg>