<?xml version="1.0" encoding="utf-8"?>
<!-- Generator: Adobe Illustrator 25.4.1, SVG Export Plug-In . SVG Version: 6.00 Build 0)  -->
<svg version="1.1" id="Layer_1" xmlns="http://www.w3.org/2000/svg" xmlns:xlink="http://www.w3.org/1999/xlink" x="0px" y="0px"
	 viewBox="0 0 247.2 265.9" style="enable-background:new 0 0 247.2 265.9;" xml:space="preserve">
<style type="text/css">
	.st0{fill:#60D3FC;}
	.st1{fill:#0878FF;}
	.st2{fill:#00AAFF;}
	.st3{fill:#FFFFFF;stroke:#231F20;stroke-width:0.2091;stroke-miterlimit:10;}
</style>
<g>
	<g>
		<path d="M13.9,227.2h19.7l3.8,9.1h10.3l-19-42.5h-9.7L0,236.3h10.1L13.9,227.2z M23.7,203.5l6.7,16.3H17L23.7,203.5z"/>
		<polygon points="80.8,193.9 67.7,224.2 54.8,193.9 44.2,193.9 62.5,236.3 72.2,236.3 90.6,193.9 		"/>
		<rect x="94.1" y="193.9" width="9.8" height="42.5"/>
		<polygon points="144.9,236.3 153,236.3 153,193.9 143.3,193.9 143.3,219.6 122.1,193.9 114,193.9 114,236.3 123.7,236.3 
			123.7,210.6 		"/>
		<polygon points="173.6,236.3 183.4,236.3 183.4,221.3 199.9,193.9 190.3,193.9 178.9,212.7 167.6,193.9 157.2,193.9 173.6,221.2 
					"/>
		<path d="M205.9,236.3l3.8-9.1h19.7l3.8,9.1h10.3l-19-42.5h-9.7l-18.9,42.5H205.9z M219.6,203.5l6.7,16.3h-13.5L219.6,203.5z"/>
		<polygon points="1.1,250.2 7.1,250.2 7.1,265.7 8.9,265.7 8.9,250.2 14.9,250.2 14.9,248.6 1.1,248.6 		"/>
		<polygon points="19.6,257.8 28.5,257.8 28.5,256.2 19.6,256.2 19.6,250.2 29.6,250.2 29.6,248.6 17.8,248.6 17.8,265.7 
			29.9,265.7 29.9,264.2 19.6,264.2 		"/>
		<path d="M36.5,252.1c0.7-0.6,1.4-1.1,2.3-1.5c0.9-0.4,1.8-0.5,2.9-0.5c1,0,1.9,0.2,2.7,0.5c0.8,0.3,1.6,0.8,2.3,1.6l1.2-1.2
			c-0.8-0.8-1.7-1.5-2.8-1.9c-1.1-0.4-2.3-0.6-3.5-0.6c-1.3,0-2.5,0.2-3.6,0.6c-1.1,0.4-2,1-2.9,1.8c-0.8,0.8-1.4,1.7-1.9,2.8
			c-0.4,1.1-0.7,2.2-0.7,3.5s0.2,2.4,0.7,3.5c0.4,1.1,1.1,2,1.9,2.8c0.8,0.8,1.7,1.4,2.8,1.8c1.1,0.4,2.3,0.6,3.6,0.6
			c1.3,0,2.4-0.2,3.5-0.6c1.1-0.4,2-1.1,2.8-1.9l-1.2-1.2c-0.7,0.7-1.5,1.2-2.3,1.6c-0.8,0.3-1.8,0.5-2.7,0.5c-1,0-2-0.2-2.9-0.5
			c-0.9-0.4-1.6-0.8-2.3-1.5c-0.7-0.6-1.2-1.4-1.5-2.3c-0.4-0.9-0.6-1.8-0.6-2.8c0-1,0.2-2,0.6-2.8S35.8,252.7,36.5,252.1z"/>
		<polygon points="64.3,256.2 53.6,256.2 53.6,248.6 51.7,248.6 51.7,265.7 53.6,265.7 53.6,257.8 64.3,257.8 64.3,265.7 
			66.1,265.7 66.1,248.6 64.3,248.6 		"/>
		<rect x="78.1" y="248.6" width="1.8" height="17.1"/>
		<polygon points="98,262.5 86.9,248.6 85.4,248.6 85.4,265.7 87.3,265.7 87.3,251.8 98.3,265.7 99.8,265.7 99.8,248.6 98,248.6 		
			"/>
		<polygon points="117.9,262.5 106.8,248.6 105.3,248.6 105.3,265.7 107.2,265.7 107.2,251.8 118.2,265.7 119.7,265.7 119.7,248.6 
			117.9,248.6 		"/>
		<path d="M139.2,250.9c-0.8-0.8-1.8-1.4-2.9-1.8c-1.1-0.4-2.3-0.6-3.6-0.6c-1.3,0-2.5,0.2-3.6,0.6c-1.1,0.4-2,1-2.9,1.8
			c-0.8,0.8-1.4,1.7-1.9,2.8c-0.4,1.1-0.7,2.2-0.7,3.5s0.2,2.4,0.7,3.5c0.4,1.1,1.1,2,1.9,2.8c0.8,0.8,1.8,1.4,2.9,1.8
			c1.1,0.4,2.3,0.6,3.6,0.6c1.3,0,2.5-0.2,3.6-0.6c1.1-0.4,2-1,2.9-1.8s1.4-1.7,1.9-2.8c0.4-1.1,0.7-2.2,0.7-3.5s-0.2-2.4-0.7-3.5
			C140.6,252.6,140,251.7,139.2,250.9z M139.4,260c-0.4,0.9-0.9,1.6-1.5,2.3c-0.6,0.6-1.4,1.1-2.3,1.5c-0.9,0.4-1.8,0.5-2.9,0.5
			c-1,0-2-0.2-2.9-0.5c-0.9-0.4-1.6-0.8-2.3-1.5c-0.6-0.6-1.2-1.4-1.5-2.3c-0.4-0.9-0.6-1.8-0.6-2.8c0-1,0.2-2,0.6-2.8
			s0.9-1.6,1.5-2.3c0.6-0.6,1.4-1.1,2.3-1.5c0.9-0.4,1.8-0.5,2.9-0.5c1,0,2,0.2,2.9,0.5c0.9,0.4,1.6,0.8,2.3,1.5s1.1,1.4,1.5,2.3
			c0.4,0.9,0.5,1.8,0.5,2.8C139.9,258.2,139.7,259.1,139.4,260z"/>
		<polygon points="157.7,248.6 151.1,263.5 144.5,248.6 142.5,248.6 150.1,265.7 151.9,265.7 159.5,248.6 		"/>
		<path d="M166.6,248.6l-7.8,17.1h1.9l2-4.6h9.6l2,4.6h1.9l-7.8-17.1H166.6z M163.3,259.7l4.1-9.2l4.1,9.2H163.3z"/>
		<polygon points="175.5,250.2 181.5,250.2 181.5,265.7 183.3,265.7 183.3,250.2 189.3,250.2 189.3,248.6 175.5,248.6 		"/>
		<path d="M205.9,250.9c-0.8-0.8-1.8-1.4-2.9-1.8c-1.1-0.4-2.3-0.6-3.6-0.6c-1.3,0-2.5,0.2-3.6,0.6c-1.1,0.4-2,1-2.9,1.8
			c-0.8,0.8-1.4,1.7-1.9,2.8c-0.4,1.1-0.7,2.2-0.7,3.5s0.2,2.4,0.7,3.5c0.4,1.1,1.1,2,1.9,2.8c0.8,0.8,1.8,1.4,2.9,1.8
			c1.1,0.4,2.3,0.6,3.6,0.6c1.3,0,2.5-0.2,3.6-0.6c1.1-0.4,2-1,2.9-1.8s1.4-1.7,1.9-2.8c0.4-1.1,0.7-2.2,0.7-3.5s-0.2-2.4-0.7-3.5
			C207.3,252.6,206.7,251.7,205.9,250.9z M206.1,260c-0.4,0.9-0.9,1.6-1.5,2.3c-0.6,0.6-1.4,1.1-2.3,1.5c-0.9,0.4-1.8,0.5-2.9,0.5
			c-1,0-2-0.2-2.9-0.5c-0.9-0.4-1.6-0.8-2.3-1.5c-0.6-0.6-1.2-1.4-1.5-2.3c-0.4-0.9-0.6-1.8-0.6-2.8c0-1,0.2-2,0.6-2.8
			s0.9-1.6,1.5-2.3s1.4-1.1,2.3-1.5c0.9-0.4,1.8-0.5,2.9-0.5c1,0,2,0.2,2.9,0.5c0.9,0.4,1.6,0.8,2.3,1.5s1.1,1.4,1.5,2.3
			c0.4,0.9,0.5,1.8,0.5,2.8C206.6,258.2,206.4,259.1,206.1,260z"/>
		<path d="M222.7,259.6c1-0.5,1.8-1.1,2.4-2c0.6-0.9,0.8-1.9,0.8-3.1c0-1.2-0.3-2.3-0.8-3.2c-0.6-0.9-1.4-1.5-2.4-2
			c-1-0.5-2.3-0.7-3.7-0.7h-6.4v17.1h1.8v-5.4h4.6c0.5,0,0.9,0,1.4-0.1l3.9,5.5h2l-4.2-5.9C222.2,259.8,222.4,259.7,222.7,259.6z
			 M218.9,258.7h-4.6v-8.6h4.6c1.7,0,3,0.4,3.9,1.1c0.9,0.8,1.3,1.8,1.3,3.2c0,1.4-0.4,2.4-1.3,3.2
			C221.9,258.4,220.6,258.7,218.9,258.7z"/>
		<path d="M239.2,257.7c-0.6-0.3-1.3-0.6-2.1-0.8c-0.7-0.2-1.5-0.4-2.2-0.6c-0.8-0.2-1.4-0.4-2.1-0.6c-0.6-0.2-1.1-0.5-1.5-1
			c-0.4-0.4-0.6-0.9-0.6-1.6c0-0.6,0.2-1.1,0.5-1.6c0.3-0.5,0.8-0.8,1.5-1.1c0.7-0.3,1.5-0.4,2.5-0.4c0.8,0,1.6,0.1,2.4,0.3
			s1.6,0.6,2.3,1.1l0.6-1.4c-0.7-0.5-1.5-0.8-2.4-1.1c-0.9-0.3-1.9-0.4-2.9-0.4c-1.5,0-2.6,0.2-3.6,0.6c-0.9,0.4-1.6,1-2.1,1.7
			c-0.4,0.7-0.7,1.5-0.7,2.3c0,0.9,0.2,1.7,0.6,2.2c0.4,0.6,0.9,1,1.5,1.4s1.3,0.6,2.1,0.8c0.8,0.2,1.5,0.4,2.3,0.6
			c0.8,0.2,1.4,0.4,2.1,0.6c0.6,0.2,1.1,0.6,1.5,1c0.4,0.4,0.6,0.9,0.6,1.6c0,0.6-0.2,1.1-0.5,1.5c-0.3,0.5-0.8,0.8-1.5,1.1
			c-0.7,0.3-1.6,0.4-2.6,0.4c-1.1,0-2.2-0.2-3.2-0.6c-1-0.4-1.8-0.9-2.4-1.5l-0.7,1.4c0.6,0.7,1.5,1.2,2.7,1.6
			c1.2,0.4,2.4,0.6,3.7,0.6c1.5,0,2.7-0.2,3.6-0.6c0.9-0.4,1.6-1,2.1-1.7s0.7-1.5,0.7-2.3c0-0.9-0.2-1.6-0.6-2.2
			C240.3,258.5,239.8,258,239.2,257.7z"/>
	</g>
	<g>
		<polygon class="st0" points="120.7,37.8 31.9,81.6 6.7,68.6 8.6,61.4 130.8,0 		"/>
	</g>
	<g>
		<polygon class="st1" points="99.2,117.4 8.6,61.4 0,93.3 88.9,154.7 		"/>
	</g>
	<g>
		<g>
			<polygon class="st0" points="148.6,39.3 215,83.8 245.1,70.9 247.2,63.1 158.3,1.7 			"/>
		</g>
		<g>
			<polygon class="st1" points="126.8,118.8 116.5,156.4 238.6,94.9 247.2,63.1 			"/>
		</g>
		<g>
			<polygon class="st2" points="148.6,39.3 247.2,63.1 210.5,80.1 			"/>
		</g>
	</g>
	<g>
		<polygon class="st2" points="120.7,37.8 8.6,61.4 37.1,79 		"/>
	</g>
</g>
</svg>
